<svg width="33" height="39" viewBox="0 0 33 39" fill="none" xmlns="http://www.w3.org/2000/svg">
<g filter="url(#filter0_d)">
<path d="M16.4523 0L6.23163 9.99372C6.07382 10.1739 5.99135 10.4057 6.00072 10.6427C6.01008 10.8798 6.11058 11.1047 6.28214 11.2724C6.4537 11.4402 6.68368 11.5385 6.92612 11.5476C7.16856 11.5568 7.40561 11.4761 7.58989 11.3218L15.489 3.60753V23.0581C15.489 23.3079 15.5905 23.5475 15.7711 23.7241C15.9518 23.9008 16.1968 24 16.4523 24C16.7078 24 16.9528 23.9008 17.1334 23.7241C17.3141 23.5475 17.4156 23.3079 17.4156 23.0581V3.60753L25.305 11.3218C25.3914 11.4204 25.4977 11.5005 25.6172 11.557C25.7367 11.6136 25.8669 11.6453 25.9995 11.6504C26.1322 11.6554 26.2645 11.6335 26.3881 11.5862C26.5117 11.5388 26.624 11.467 26.7179 11.3752C26.8117 11.2834 26.8852 11.1736 26.9336 11.0527C26.9821 10.9319 27.0044 10.8025 26.9993 10.6728C26.9942 10.5431 26.9617 10.4158 26.9038 10.2989C26.846 10.1821 26.7641 10.0782 26.6633 9.99372L16.4523 0Z" fill="black" fill-opacity="0.5"/>
<path d="M28.1071 29H4.89286C4.65606 29 4.42896 29.1054 4.26151 29.2929C4.09407 29.4804 4 29.7348 4 30C4 30.2652 4.09407 30.5196 4.26151 30.7071C4.42896 30.8946 4.65606 31 4.89286 31H28.1071C28.3439 31 28.571 30.8946 28.7385 30.7071C28.9059 30.5196 29 30.2652 29 30C29 29.7348 28.9059 29.4804 28.7385 29.2929C28.571 29.1054 28.3439 29 28.1071 29Z" fill="black" fill-opacity="0.5"/>
</g>
<defs>
<filter id="filter0_d" x="0" y="0" width="33" height="39" filterUnits="userSpaceOnUse" color-interpolation-filters="sRGB">
<feFlood flood-opacity="0" result="BackgroundImageFix"/>
<feColorMatrix in="SourceAlpha" type="matrix" values="0 0 0 0 0 0 0 0 0 0 0 0 0 0 0 0 0 0 127 0" result="hardAlpha"/>
<feOffset dy="4"/>
<feGaussianBlur stdDeviation="2"/>
<feComposite in2="hardAlpha" operator="out"/>
<feColorMatrix type="matrix" values="0 0 0 0 0 0 0 0 0 0 0 0 0 0 0 0 0 0 0.25 0"/>
<feBlend mode="normal" in2="BackgroundImageFix" result="effect1_dropShadow"/>
<feBlend mode="normal" in="SourceGraphic" in2="effect1_dropShadow" result="shape"/>
</filter>
</defs>
</svg>
